<svg xmlns="http://www.w3.org/2000/svg" viewBox="0 0 365.06 318.81">
  <style>
    path {
      fill: #5a5ce4;
    }
    @media (prefers-color-scheme: dark) {
      path {
        fill: #a5b4fc!important;
      }
    }
  </style>
  <path d="M10,318.81H94.25a10,10,0,0,0,8-15.94L55.06,238.8a10,10,0,0,0-16.71.93l-37,64.08A10,10,0,0,0,10,318.81Z" />
  <path d="M266.88,318.81h88.17a10,10,0,0,0,8.66-15l-26.33-45.6a10,10,0,0,0-14.59-3l-61.85,45.6A10,10,0,0,0,266.88,318.81Z" />
  <path d="M173.87,5,70,185a10,10,0,0,0,2.73,13l76.44,56.36a10,10,0,0,0,14-2.11L255,127.59a10,10,0,0,0,.62-10.94L191.19,5A10,10,0,0,0,173.87,5Z" />
</svg>