<svg xmlns="http://www.w3.org/2000/svg" viewBox="0 0 1114 470" fill="#fff" id="logo-root"
  filter="url(#logo-filter)" class="h-24 md:h-28 drop-shadow-[0px_2px_3px_rgb(31,41,55,.5)]">
  <defs>
    <filter id="logo-filter">
      <feTurbulence type="fractalNoise" baseFrequency="0 0" numOctaves="1" result="warp" seed="1">
        <animate attributeName="baseFrequency" dur="4000ms" begin="1s"
          values="0 0; 0.02 0.5; 0 0; 0 0; 0.002 0.4; 0 0; 0 0" keyTimes="0; 0.05; 0.05; 0.1; 0.1; 0.15; 1"
          repeatCount="indefinite"></animate>
      </feTurbulence>
      <feDisplacementMap xChannelSelector="R" yChannelSelector="G" scale="30" in="SourceGraphic" in2="warp">
      </feDisplacementMap>
      <feDropShadow dx="0" dy="0" stdDeviation="0" flood-color="#ff0024" flood-opacity="0">
        <animate attributeName="dx" dur="4000ms" begin="1s" values="0; -4; 0; 0; -4; 0; 0"
          keyTimes="0; 0.05; 0.05; 0.1; 0.1; 0.15; 1" repeatCount="indefinite"></animate>
        <animate attributeName="flood-opacity" dur="4000ms" begin="1s" values="0; 1; 0; 0; 1; 0; 0"
          keyTimes="0; 0.05; 0.05; 0.1; 0.1; 0.15; 1" repeatCount="indefinite"></animate>
      </feDropShadow>
      <feDropShadow dx="0" dy="0" stdDeviation="0" flood-color="#00feff" flood-opacity="0">
        <animate attributeName="dx" dur="4000ms" begin="1s" values="0; 4; 0; 0; 4; 0; 0"
          keyTimes="0; 0.05; 0.05; 0.1; 0.1; 0.15; 1" repeatCount="indefinite"></animate>
        <animate attributeName="flood-opacity" dur="4000ms" begin="1s" values="0; 1; 0; 0; 1; 0; 0"
          keyTimes="0; 0.05; 0.05; 0.1; 0.1; 0.15; 1" repeatCount="indefinite"></animate>
      </feDropShadow>
      <feDropShadow dx="0" dy="3" stdDeviation="4" flood-color="rgb(0,0,0)" flood-opacity="0.2"></feDropShadow>
    </filter>
  </defs>
  <g id="logo" opacity="0">
    <rect id="triggerbox" width="1114" height="470" fill="rgba(0,0,0,0)"></rect>
    <g id="yin">
      <g id="yin-1">
        <path
          d="M264.8,228.7C290.7,212,307.5,195.5,316.2,192.8L282.3,175.8C291.4,170.6,300,162.9,300.3,160.8L300.5,31.5C300.5,31.5,275.8,52.6,266.1,56.8C266.1,56.8,266.1,102.2,266.1,108.4L215.3,124L215.3,81.1L259.2,67.6L259.2,59.3C216.7,72.3,226.1,73.6,181.4,66.5L181.4,212.3C181.4,213.5,181.4,215.4,181.4,216.7L181.4,283.9C181.4,292.2,179.6,296.1,169.1,305.5L185.5,341.5C188.9,339,234.8,281.8,243.7,270.2L243.2,267.4C233.8,272.3,224.2,277.7,215.3,282.2L215.3,186.5L231.5,181.6C240.9,248.9,257.5,273.3,289.1,297.6L321.4,260.7L321.7,257.3C310,256.2,281.3,244.4,264.8,228.7ZM215.3,178.1L215.3,132.3L266.2,116.8L266.2,162.6L215.3,178.1ZM235.9,180.1L266.2,170.9L266.2,182.5C270.4,181.2,275.4,179.9,279.2,177.6C275,188.7,266.9,207.5,259.1,222.7C249.2,211.4,241.1,197.2,235.9,180.1Z">
        </path>
      </g>
      <g id="yin-2">
        <path
          d="M140.5,286.3L140.5,231.6L174.5,221.2L174.5,212.8L140.5,223.2L140.5,178.3C146.7,175.1,173.9,172,174.9,163L153.9,149.1L131.3,172.8L91.4,185C102.1,167.8,111.7,149.1,119.1,130.8C125.3,127.1,180.3,116.9,180.4,107.3L157.7,94.3L136.8,117L122.7,121.3C126.1,112.5,133.6,85.4,133.6,85.4L92.7,85.5C91.4,116.8,83.3,174,71,209.6L73.1,210.4C78.8,203.3,84.6,195.6,89.8,187.2L91.4,193.3L105,189.2L105,234.1L76.1,242.9L76.1,251.2L105,242.4L105,302.8C105,309.3,102.7,313,88.8,329.4L122.1,352.7C122.1,352.7,170.7,271.6,179.4,254.4L178.4,252.3C165.3,264.1,152.2,275.8,140.5,286.3Z">
        </path>
      </g>
      <g id="yin-3">
        <polygon points="15.4,242.5 15.3,256.3 70.1,239.5 70.2,225.7"></polygon>
      </g>
    </g>
    <g id="he">
      <g id="he-1">
        <path
          d="M397.4,220.9L394.1,220.8C371.1,312.7,372,324.9,345.7,330.1L345.7,335C369.7,329.1,362.9,358.1,359.6,393.7L375.1,402.9L398.3,371.8C398.3,371.8,387.9,342.8,387.2,327.8C389.5,291.8,397.4,220.9,397.4,220.9Z">
        </path>
        <path d="M371.1,191C397.9,199.9,416.9,137.5,352.7,158.1L351.2,160L371.1,191Z"></path>
        <path d="M338.4,221.2L336.9,222.8L351.9,254.6C377.1,266.7,400.1,205.5,338.4,221.2Z"></path>
      </g>
      <g id="he-2">
        <path
          d="M504.1,288.4L504.1,176.6C504.1,176.6,478.4,193.1,468.4,198.2C465.4,199.7,455.6,202.1,455.6,202.1L419.9,197.9L419.9,335.6L452.2,315.3L452.2,287L470.7,281.3L470.7,307.5L504.1,288.4ZM452.2,278.7L452.2,211.5L470.7,205.8L470.7,273L452.2,278.7Z">
        </path>
        <path
          d="M557.6,102C551.7,106.3,534.8,123,521.8,128.9L521.8,325.2C521.8,329.1,520.2,331.9,515.8,333.3C508,335.7,470.9,344.6,470.9,344.6L470.9,348.2C486,346,507.1,352.6,509.8,380.9C519.7,377.2,520.8,375.9,520.8,375.9L559.1,315.6L559.1,125C559.1,103.3,557.6,102,557.6,102Z">
        </path>
        <polygon points="413.3,168.2 413.3,176.6 512.1,146.3 512.1,138"></polygon>
      </g>
    </g>
    <g id="du">
      <g id="du-1">
        <path d="M615.7,67.1L613.8,69L630,109.3C657.3,124.3,684.5,57.3,615.7,67.1Z"></path>
        <path
          d="M659.3,138.1C633.2,230.2,631.2,252,602.9,257.2L602.9,262.6C629.1,256.2,622.1,289.7,618.3,329.9L634.5,340.7L658.8,306.5C658.8,306.4,647.8,272.3,647,255C649.2,214.4,661,159.1,663.5,138L659.3,138.1Z">
        </path>
        <path d="M596.4,138.8L594.5,140.7L608.4,179.3C634.2,194.7,662,129.8,596.4,138.8Z"></path>
      </g>
      <g id="du-2">
        <path
          d="M810.6,151.2L810.6,109.9L837.5,101.7C840.9,100.7,843.5,98.4,844.3,94.9L828,86.3L810.6,101.6L810.6,72.8C815.3,70.5,816.6,68,817.1,65.2L780.1,72.6L780.1,111L758.2,117.7L758.2,88.9C762.9,86.6,764.2,84.1,764.7,81.3L727.7,88.7L727.7,127.1C713.6,132.2,715.9,127.2,715.8,139.1L727.7,135.5L727.7,189.3L758.2,171.4L758.2,159.8L780.1,153.1L780.1,169.2L810.6,151.2ZM758.2,151.2L758.2,125.9L780.1,119.2L780.1,144.5L758.2,151.2Z">
        </path>
        <path
          d="M711.1,80.4L711.1,80.4C711.4,81.7,674.3,68.9,676.7,73.8C676,137.5,678.1,338,678.8,367.8L710.9,345.6C710.9,341.2,711.1,80.4,711.1,80.4Z">
        </path>
        <path
          d="M848.2,40.8L824.9,30.7C822.4,30.6,802,53.6,800.1,53L780.5,59C779,59.4,777.9,57.5,778.9,56.2C791.1,40.5,785,15.6,739.6,27.8C738.8,28.5,738.2,29.7,738.9,30.7C743.9,38.2,747.8,50.6,747.7,63.6C747.7,64.5,748.3,65.1,749.1,65.5C750.4,66.2,750.2,68.4,748.8,68.8L715.7,79.6L715.7,87.6C748.1,75.4,849.5,50.3,848.7,43.1C849,42.3,848.8,41.3,848.2,40.8Z">
        </path>
        <path
          d="M795.2,239.1C808.2,221.7,823.1,189.3,831.5,169.2L810.1,160.3L791.2,177.9C791.2,177.9,790.2,186,789.7,188.3C787.2,200.7,777.4,219.4,768.6,234.1C754,228.8,742,219.6,733.6,204.9L782.2,190.1L782.2,181.8L716.5,201.9L716.5,210.2L728.7,206.4C734.4,228.7,742.8,244.9,753.5,256.8C741.4,273,727.1,288.3,711,302.6C701,311.5,690.3,319.9,678.9,327.8L680.2,331C691,325.7,701.3,320.1,711,314.2C732.8,301,752,286.2,768.6,269.8C783.5,279.3,801.5,283.9,822.6,285.8L850.5,239.5L850.5,235.9C831.5,238.7,812.4,240.7,795.2,239.1Z">
        </path>
      </g>
    </g>
    <g id="zhou">
      <g id="zhou-1">
        <path d="M928.4,213.3L926.5,215.2L942,258.4C970.1,276.9,1000.7,202.8,928.4,213.3Z"></path>
        <path d="M928.8,300.8L926.9,302.7L943.8,349.7C972.9,368.5,1003.4,292,928.8,300.8Z"></path>
        <path
          d="M1031,139.7C1031,139.7,1005,162.5,993,170.1L993,262.3L913.7,286.5C913.7,283.5,913.7,207.8,913.7,202.7L984.1,181.2L984.1,172.9L940.3,186.3C962.4,164.6,967.4,159.8,979.1,146.4L932.7,143.7C932.4,157.2,931.4,176.8,930.6,189.2L919.1,192.7L876.6,189.3C876.6,196,876.6,293.5,876.6,297.8L788,324.9L788,333.2L876.4,306.2C875.4,355.6,868.8,405.4,836,454.1L837.8,455.9C901.2,402.3,911.9,345,913.5,294.8L993.1,270.5L993.1,356.1C993.1,359.7,992.1,362.1,987.9,363.3C982.4,365,957.9,371,957.9,371L957.9,374.9C970.5,372.4,983.3,386.6,985.6,410.5C994.3,407,993.2,407.2,993.2,407.2L1031,349L1031,139.7Z">
        </path>
      </g>
      <g id="zhou-2">
        <polygon points="1102,226.5 1038.4,246.1 1038.4,230.4 1102,210.8"></polygon>
      </g>
    </g>
  </g>
  <style>
    #logo {
      animation: logo__to 3000ms forwards cubic-bezier(0.165, 0.84, 0.44, 1);
    }

    #yin-1,
    #he-2,
    #du-2 {
      animation: logoSlideUp 3000ms forwards cubic-bezier(0.165, 0.84, 0.44, 1)
    }

    #yin-2,
    #he-1,
    #du-1,
    #zhou-1 {
      animation: logoSlideDown 3000ms forwards cubic-bezier(0.165, 0.84, 0.44, 1)
    }

    #yin-3 {
      animation: yin-3__to 3000ms forwards cubic-bezier(0.165, 0.84, 0.44, 1)
    }

    #zhou-2 {
      animation: zhou-2__to 3000ms forwards cubic-bezier(0.165, 0.84, 0.44, 1)
    }

    @keyframes logo__to {
      0% {
        opacity: 0
      }

      16% {
        opacity: 0
      }

      33% {
        opacity: 1
      }

      100% {
        opacity: 1
      }
    }

    @keyframes logoSlideDown {
      0% {
        transform: translateY(-50%)
      }

      16% {
        transform: translateY(-50%)
      }

      33% {
        transform: translateY(0)
      }

      100% {
        transform: translateY(0)
      }
    }

    @keyframes logoSlideUp {
      0% {
        transform: translateY(50%)
      }

      16% {
        transform: translateY(50%)
      }

      33% {
        transform: translateY(0)
      }

      100% {
        transform: translateY(0)
      }
    }

    @keyframes yin-3__to {
      0% {
        transform: translate(-100%, 100%)
      }

      23% {
        transform: translate(-100%, 100%);
      }

      40% {
        transform: translate(0, 0)
      }

      100% {
        transform: translate(0, 0)
      }
    }

    @keyframes zhou-2__to {
      0% {
        transform: translate(100%, -100%)
      }

      23% {
        transform: translate(100%, -100%)
      }

      40% {
        transform: translate(0, 0)
      }

      100% {
        transform: translate(0, 0)
      }
    }
  </style>
</svg>